<?xml version="1.0" standalone="no"?>
<!DOCTYPE svg PUBLIC "-//W3C//DTD SVG 20010904//EN"
 "http://www.w3.org/TR/2001/REC-SVG-20010904/DTD/svg10.dtd">
<svg version="1.0" xmlns="http://www.w3.org/2000/svg"
 width="300.000000pt" height="300.000000pt" viewBox="0 0 300.000000 300.000000"
 preserveAspectRatio="xMidYMid meet">
<metadata>
Created by potrace 1.14, written by Peter Selinger 2001-2017
</metadata>
<g transform="translate(0.000000,300.000000) scale(0.100000,-0.100000)"
fill="#000000" stroke="none">
<path d="M473 2004 c-218 -37 -392 -204 -437 -420 -36 -169 16 -357 132 -480
116 -123 258 -181 422 -171 90 5 101 7 167 30 247 85 400 370 339 631 -24 100
-70 181 -151 262 -127 128 -291 179 -472 148z"/>
<path d="M1762 2009 c-60 -11 -141 -51 -179 -88 -18 -17 -34 -31 -36 -31 -2 0
-3 25 -2 55 1 42 -3 56 -14 59 -14 4 -278 1 -291 -2 -3 -1 -6 -228 -5 -504 l0
-503 153 0 c96 0 152 3 153 10 1 5 2 141 3 300 2 312 6 343 54 388 63 61 179
72 251 24 75 -50 75 -53 81 -407 l5 -315 150 0 150 0 5 315 c5 308 5 316 28
352 44 70 130 100 221 78 52 -12 91 -43 118 -93 16 -28 18 -67 20 -322 1 -159
2 -299 3 -310 0 -20 6 -21 153 -20 l152 0 -1 340 c0 321 -1 344 -22 412 -37
121 -128 214 -243 247 -167 48 -327 9 -437 -108 l-51 -54 -15 23 c-77 117
-249 183 -404 154z"/>
</g>
</svg>
